<svg xmlns="http://www.w3.org/2000/svg" xmlns:dc="http://purl.org/dc/elements/1.1/" xmlns:ns1="http://sodipodi.sourceforge.net/DTD/sodipodi-0.dtd" xmlns:ns2="http://www.inkscape.org/namespaces/inkscape" xmlns:ns4="http://creativecommons.org/ns#" xmlns:ns6="http://www.w3.org/1999/xlink" xmlns:rdf="http://www.w3.org/1999/02/22-rdf-syntax-ns#" version="1.1" x="0px" y="0px" viewBox="0 0 439.99996 340.00014" xml:space="preserve" id="svg8" ns1:docname="printable-baseball-field-diagram-colored-cc9966-448844.svg" width="439.99997" height="340" ns2:version="1.3-dev (fe4297a9c, 2023-01-13)"><metadata id="metadata14"><rdf:RDF><ns4:Work rdf:about=""><dc:format>image/svg+xml</dc:format><dc:type rdf:resource="http://purl.org/dc/dcmitype/StillImage" /></ns4:Work></rdf:RDF></metadata><defs id="defs12"><linearGradient ns2:collect="always" id="linearGradient6"><stop style="stop-color:#000000;stop-opacity:1;" offset="0" id="stop5" /><stop style="stop-color:#000000;stop-opacity:0;" offset="1" id="stop6" /></linearGradient><pattern ns2:collect="always" ns6:href="#pattern12" preserveAspectRatio="xMidYMid" id="pattern1" patternTransform="matrix(0.08128263,0,0,0.06918327,532.30475,-3.4699871)" /><pattern ns2:collect="always" ns6:href="#pattern5" preserveAspectRatio="xMidYMid" id="pattern12" patternTransform="matrix(0.07719683,0,0,0.06570566,68.334246,-0.67980214)" /><pattern ns2:collect="always" ns6:href="#pattern2" preserveAspectRatio="xMidYMid" id="pattern6" patternTransform="matrix(0.066,0,0,0.066,0.125,0)" /><pattern ns2:collect="always" ns6:href="#pattern2" preserveAspectRatio="xMidYMid" id="pattern5" patternTransform="matrix(0.066,0,0,0.066,0.125,0)" /><pattern ns2:collect="always" ns6:href="#WireFence" preserveAspectRatio="xMidYMid" id="pattern4" patternTransform="matrix(0.28356305,0,0,0.30010605,-22.608525,-0.05821753)" x="0" y="0" /><pattern ns2:collect="always" ns6:href="#WireFence" preserveAspectRatio="xMidYMid" id="pattern2" patternTransform="scale(0.066)" x="0" y="0" /><pattern patternUnits="userSpaceOnUse" width="52" height="61.14" id="WireFence" patternTransform="scale(0.3,0.3)" preserveAspectRatio="xMidYMid" style="fill:#fefefe" ns2:collect="always" ns2:isstock="true" ns2:label="WireFence">
      <path id="rect9" style="stroke:none" d="m 31.437499,0 7.257813,7.2578126 c -0.879538,1.3312883 -0.879117,3.0161644 10e-7,4.3476564 L 26.072266,24.228516 14,36.300782 0,22.302735 v 2.828124 l 12.640625,12.640625 c -0.89873,1.34129 -0.898729,3.115742 0,4.457031 L 0,54.86914 v 2.828126 l 14,-14 17.443359,17.443359 2.828125,10e-7 -18.912109,-18.91211 c 0.898055,-1.340861 0.898042,-3.116186 0,-4.457031 L 27.488281,25.642578 40,13.128906 l 12.000001,12 L 52,22.300781 41.302734,11.605469 c 0.879644,-1.331587 0.879713,-3.0161029 0,-4.3476564 L 48.560547,0 H 45.732422 L 40,5.732422 34.267578,0 Z M 52,54.869141 l -6.271484,6.271484 2.828124,0 L 52,57.697265 Z" />
    </pattern><filter id="b" x="-0.027825156" y="-0.027227204" width="1.0556504" height="1.0544544"><feGaussianBlur stdDeviation="4.46364" id="feGaussianBlur1" /></filter><radialGradient id="a" cx="1049.4" cy="260.32999" r="151.55" gradientTransform="matrix(-0.48145,-0.48145,0.6544,-0.6544,716.8,973.82)" gradientUnits="userSpaceOnUse"><stop stop-color="#e8943a" offset="0" id="stop1" /><stop stop-color="#af412a" offset="1" id="stop2" /></radialGradient><linearGradient ns2:collect="always" ns6:href="#linearGradient6" id="linearGradient7" x1="184.70442" y1="344.57892" x2="256.86505" y2="344.57892" gradientUnits="userSpaceOnUse" gradientTransform="matrix(0.76349615,0,0,1,49.084741,-13.434418)" /></defs><ns1:namedview pagecolor="#ffffff" bordercolor="#666666" borderopacity="1" objecttolerance="10" gridtolerance="10" guidetolerance="10" ns2:pageopacity="0" ns2:pageshadow="2" ns2:window-width="1366" ns2:window-height="705" id="namedview10" showgrid="false" ns2:showpageshadow="false" fit-margin-top="20" lock-margins="false" fit-margin-bottom="20" fit-margin-left="1" fit-margin-right="1" ns2:zoom="1.3570911" ns2:cx="163.58519" ns2:cy="181.63851" ns2:window-x="1358" ns2:window-y="80" ns2:window-maximized="1" ns2:current-layer="svg8" ns2:document-rotation="0" ns2:pagecheckerboard="0" ns2:deskcolor="#d1d1d1"><ns2:grid type="xygrid" id="grid1214" empspacing="10" originx="1860.3352" originy="676.7561" spacingx="2.0000004" spacingy="2.0000004" units="px" visible="false" /></ns1:namedview>

<path id="rect19" style="opacity:1;fill:#ffffff;fill-rule:evenodd;stroke-width:0.999997;stroke-linecap:round;stroke-miterlimit:10;paint-order:markers fill stroke;stop-color:#000000" d="M 0,0 H 439.99997 V 340 H 0 Z" /><g id="Layer_1" transform="translate(15.228729,1228.578)">
</g>
<g id="g1"><path id="path71" style="fill:#22aa22;fill-opacity:1;fill-rule:evenodd;stroke:#1a1a1a;stroke-width:1;stroke-linecap:round;stroke-miterlimit:10;stroke-opacity:1;paint-order:markers fill stroke;stop-color:#000000" d="M 219.99897,13.004012 C 78.116575,12.44529 23.897834,141.75025 24.003854,143.46448 L 191.10018,312.91757 c 20.15674,18.52274 31.94931,18.84716 52.62882,0.53469 L 415.99597,143.46259 c 0.07,-1.01829 -60.93246,-131.295279 -195.997,-130.458578 z" ns1:nodetypes="cccccc" /><path id="path92" style="fill:#cc9966;fill-opacity:1;fill-rule:evenodd;stroke:none;stroke-width:1;stroke-linecap:round;stroke-miterlimit:10;paint-order:markers fill stroke;stop-color:#000000" d="m 107.88475,179.94978 c -0.0658,-1.08045 21.54041,-84.203085 109.45536,-83.850925 83.69039,-0.527362 109.49877,83.209105 109.45536,83.850905 L 217.34011,291.29647 Z" ns1:nodetypes="ccccc" /><path id="rect92" style="fill:#ffffff;fill-rule:evenodd;stroke-width:0.999992;stroke-linecap:round;stroke-miterlimit:10;paint-order:markers fill stroke;stop-color:#000000" transform="matrix(0.70707733,-0.70713623,0.70707733,0.70713623,0,0)" d="m 66.670212,233.83257 h 7.253874 v 7.25387 h -7.253874 z" /><path id="rect93" style="fill:#ffffff;fill-rule:evenodd;stroke-width:0.999992;stroke-linecap:round;stroke-miterlimit:10;paint-order:markers fill stroke;stop-color:#000000" transform="matrix(0.70707733,-0.70713623,0.70707733,0.70713623,0,0)" d="m 68.249695,344.42285 h 7.253874 v 7.25388 h -7.253874 z" /><path id="rect94" style="fill:#ffffff;fill-rule:evenodd;stroke-width:0.999992;stroke-linecap:round;stroke-miterlimit:10;paint-order:markers fill stroke;stop-color:#000000" transform="matrix(0.70707733,-0.70713623,0.70707733,0.70713623,0,0)" d="m -44.829552,231.94653 h 7.253874 v 7.25388 h -7.253874 z" /><path id="path94" style="fill:#22aa22;fill-opacity:1;fill-rule:evenodd;stroke-width:0.999992;stroke-linecap:round;stroke-miterlimit:10;paint-order:markers fill stroke;stop-color:#000000" d="m 223.93233,123.18661 a 7.772905,7.7735522 0 0 1 -6.17884,3.29971 7.772905,7.7735522 0 0 1 -6.16366,-3.27441 l -65.21955,65.22496 a 7.772905,7.7735522 0 0 1 2.56061,5.74414 7.772905,7.7735522 0 0 1 -2.79845,5.84535 l 65.64714,65.65259 a 7.772905,7.7735522 0 0 1 5.65004,-2.50768 7.772905,7.7735522 0 0 1 5.99667,2.84678 l 66.00389,-66.00942 a 7.772905,7.7735522 0 0 1 -2.53022,-5.6657 7.772905,7.7735522 0 0 1 2.52265,-5.66061 z" /><path id="rect95" style="fill:none;fill-rule:evenodd;stroke:#ffffff;stroke-width:0.75;stroke-linecap:square;stroke-miterlimit:10;paint-order:markers fill stroke;stop-color:#000000" transform="matrix(0.70707733,0.70713623,-0.70707733,0.70713623,0,0)" d="m 365.31735,-77.33992 h 6.76006 v 18.082565 h -6.76006 z" /><path id="rect96" style="fill:none;fill-rule:evenodd;stroke:#ffffff;stroke-width:0.75;stroke-linecap:square;stroke-miterlimit:10;paint-order:markers fill stroke;stop-color:#000000" transform="matrix(-0.70707733,0.70713623,0.70707733,0.70713623,0,0)" d="m 56.453781,227.43768 h 6.760059 v 18.08257 h -6.760059 z" /><path id="ellipse96" style="fill:#cc9966;fill-rule:evenodd;stroke-linecap:round;stroke-miterlimit:10;paint-order:markers fill stroke;stop-color:#000000" d="m 237.22457,280.79053 a 19.730906,19.73255 0 0 1 -19.7309,19.73255 19.730906,19.73255 0 0 1 -19.73091,-19.73255 19.730906,19.73255 0 0 1 19.73091,-19.73255 19.730906,19.73255 0 0 1 19.7309,19.73255 z" /><path id="path96" style="fill:#ffffff;fill-rule:evenodd;stroke-width:1;stroke-linecap:round;stroke-miterlimit:10;paint-order:markers fill stroke;stop-color:#000000" d="m 212.74245,270.62975 v 4.8254 l 4.82969,4.83009 h 0.0141 l 4.81084,-4.81123 v -4.84426 z" /><path id="rect97" style="fill:none;fill-rule:evenodd;stroke:#ffffff;stroke-width:0.75;stroke-linecap:square;stroke-miterlimit:10;paint-order:markers fill stroke;stop-color:#000000" d="m 214.25471,283.70337 h 6.75978 v 9.59359 h -6.75978 z" /><path id="rect99" style="fill:none;fill-rule:evenodd;stroke:#ffffff;stroke-width:0.75;stroke-linecap:square;stroke-miterlimit:10;paint-order:markers fill stroke;stop-color:#000000" d="m 203.62508,267.11154 h 6.75977 v 18.08332 h -6.75977 z" /><path id="ellipse100" style="fill:#cc9966;fill-rule:evenodd;stroke-linecap:round;stroke-miterlimit:10;paint-order:markers fill stroke;stop-color:#000000" d="m 230.55923,191.55502 a 13.013762,13.014845 0 0 1 -13.01376,13.01485 13.013762,13.014845 0 0 1 -13.01376,-13.01485 13.013762,13.014845 0 0 1 13.01376,-13.01484 13.013762,13.014845 0 0 1 13.01376,13.01484 z" /><path id="rect100" style="fill:#ffffff;fill-rule:evenodd;stroke-linecap:round;stroke-miterlimit:10;paint-order:markers fill stroke;stop-color:#000000" transform="rotate(-90)" d="m -193.28378,212.8999 h 3.37972 v 9.35298 h -3.37972 z" /><path id="circle183" style="fill:#cc9966;fill-rule:evenodd;stroke:#000000;stroke-width:0.7;stroke-linecap:square;stroke-miterlimit:10;paint-order:markers fill stroke;stop-color:#000000" d="m 176.19493,279.00565 a 5.4664497,5.4663391 0 0 1 -5.46644,5.46633 5.4664497,5.4663391 0 0 1 -5.46645,-5.46633 5.4664497,5.4663391 0 0 1 5.46645,-5.46634 5.4664497,5.4663391 0 0 1 5.46644,5.46634 z" /><g id="g80" transform="matrix(1.2091929,0,0,1.2093428,455.41219,-135.33545)" style="stroke-width:0.826947"><path style="color:#000000;fill:#d3bc5f;fill-rule:evenodd;stroke-width:0.826947;stroke-linecap:square;stroke-miterlimit:10;-inkscape-stroke:none;paint-order:markers fill stroke" d="M -331.29297,208.92381 -196.26758,343.9492 Z" id="path79" /><path id="path80" style="color:#000000;fill:#ffffff;fill-rule:evenodd;stroke-width:0.826947;stroke-linecap:square;stroke-miterlimit:10;-inkscape-stroke:none;paint-order:markers fill stroke" d="m -52.573957,198.64616 -144.087523,144.28248 -143.17393,-142.69341 -0.7076,0.70757 143.87179,143.39124 0.004,-0.004 0.01,0.01 144.791225,-144.98615 z" ns1:nodetypes="ccccccccc" /></g><path id="circle188" style="fill:#cc9966;fill-rule:evenodd;stroke:#000000;stroke-width:0.7;stroke-linecap:square;stroke-miterlimit:10;paint-order:markers fill stroke;stop-color:#000000" d="m 271.35238,279.00565 a 5.4664497,5.4663391 0 0 1 -5.46645,5.46633 5.4664497,5.4663391 0 0 1 -5.46645,-5.46633 5.4664497,5.4663391 0 0 1 5.46645,-5.46634 5.4664497,5.4663391 0 0 1 5.46645,5.46634 z" /><path id="rect1" style="fill:none;fill-rule:evenodd;stroke:#000000;stroke-width:0.749998;stroke-linecap:square;stroke-miterlimit:10;paint-order:markers fill stroke;stop-color:#000000" transform="matrix(0.70814892,0.7060631,-0.7047007,0.7095047,0,0)" d="m 405.07428,-66.055779 h 13.8686 v 46.52858 h -13.8686 z" /><path id="rect2" style="fill:none;fill-rule:evenodd;stroke:#000000;stroke-width:0.749998;stroke-linecap:square;stroke-miterlimit:10;paint-order:markers fill stroke;stop-color:#000000" transform="matrix(-0.70607744,0.70813463,-0.70951896,-0.70468634,0,0)" d="m 95.652138,-300.88782 h 13.868602 v 46.52859 H 95.652138 Z" /><path id="rect3" style="fill:none;fill-rule:evenodd;stroke:#ffffff;stroke-width:0.75;stroke-linecap:square;stroke-miterlimit:10;paint-order:markers fill stroke;stop-color:#000000" d="m 224.91037,267.11154 h 6.75978 v 18.08332 h -6.75978 z" /><path id="path1" style="fill:none;fill-opacity:1;fill-rule:evenodd;stroke:#1a1a1a;stroke-width:1;stroke-linecap:round;stroke-miterlimit:10;stroke-opacity:1;paint-order:markers fill stroke;stop-color:#000000" d="M 219.99897,13.004012 C 78.116575,12.44529 23.897834,141.75025 24.003854,143.46448 L 191.10018,312.91757 c 20.15674,18.52274 31.94931,18.84716 52.62882,0.53469 L 415.99597,143.46259 c 0.07,-1.01829 -60.93246,-131.295279 -195.997,-130.458578 z" ns1:nodetypes="cccccc" /></g><g transform="translate(10, 328)">  <path id="path833" style="font-size:11px;fill:#bbbbbb" d="m 47.099139,1 c 0,2.785807 0,5.571615 0,8.357422 0.336589,0 0.673177,0 1.009766,0 0,-1.492839 0,-2.985677 0,-4.478516 0.734878,-0.63751 2.306024,-1.222982 2.848262,-0.08188 0.278327,0.918406 0.103034,1.896215 0.147834,2.844253 0,0.572046 0,1.144093 0,1.716139 0.336588,0 0.673177,0 1.009765,0 -0.04032,-1.586492 0.0905,-3.185124 -0.08604,-4.763334 -0.263861,-1.225268 -1.77799,-1.757192 -2.837556,-1.214394 -0.475175,0.186034 -1.286643,0.921151 -1.082273,-0.0062 0,-0.791155 0,-1.582311 0,-2.373467 -0.336584,0 -0.673195,0 -1.009763,0 z m 40.878907,0 c 0,0.866536 0,1.733073 0,2.599609 -1.267117,-0.782933 -3.219192,-0.430669 -3.852886,1.006676 -0.667723,1.336008 -0.576271,3.099777 0.360774,4.283954 0.906871,0.930935 2.547941,0.783098 3.411106,-0.125578 -0.0059,0.516749 0.258965,0.694173 0.780978,0.592761 0.450356,0.147098 0.283244,-0.323271 0.309793,-0.59998 0,-2.585814 0,-5.171628 0,-7.757442 -0.336588,0 -0.673177,0 -1.009765,0 z M 4.0815615,1.214844 c -1.270503,-0.05781 -2.818921,0.649361 -2.9887349,2.043628 -0.20654812,1.167321 0.7564776,2.214186 1.8700399,2.39622 0.9546903,0.250777 2.038458,0.16718 2.864789,0.786714 0.807458,0.95514 -0.335077,2.248639 -1.416056,2.125769 C 3.2121188,8.678893 2.013116,8.238225 1.0569583,7.53125 0.94800728,8.29909 0.89371398,9.151735 1.8828985,9.184181 3.3532105,9.640226 5.1525995,9.730388 6.4263825,8.736633 7.4106285,7.904292 7.5336745,6.057789 6.3005025,5.390254 5.1351145,4.660262 3.590645,4.994686 2.4640453,4.203468 1.7046717,3.369423 2.5975009,2.109131 3.6176791,2.16804 4.7554905,2.011058 5.9155785,2.388767 6.8503055,3.029297 6.9592325,2.289211 6.9928105,1.477595 6.0293245,1.476937 5.3965525,1.299278 4.7388495,1.210035 4.0815615,1.214844 Z m 22.2089845,0 c -1.709272,-0.09554 -3.479224,1.088445 -3.763434,2.832548 -0.432259,1.759773 -0.06573,4.017426 1.646895,4.966793 1.358741,0.736758 3.05146,0.590083 4.416527,-0.05214 0.680945,0.03217 0.625243,-2.018154 -0.120991,-1.103607 C 27.741644,8.497325 26.686445,8.667797 25.744949,8.543296 24.617107,8.4195 23.779515,7.455695 23.583414,6.374468 23.286579,5.047039 23.521074,3.377321 24.704374,2.545893 25.971075,1.760872 27.664504,2.126257 28.755674,3.052942 29.266855,3.256272 28.968358,2.14447 28.92255,1.881594 28.111496,1.465748 27.205928,1.210082 26.290546,1.214841 Z m 41.792968,0 c -1.270503,-0.05781 -2.818921,0.649361 -2.988735,2.043628 -0.206221,1.166571 0.755412,2.214135 1.868737,2.396148 0.955154,0.250725 2.038998,0.167842 2.866092,0.786786 0.803825,0.9559 -0.334598,2.248888 -1.416223,2.12578 C 67.213312,8.678851 66.014146,8.237569 65.056958,7.53125 64.952671,8.299464 64.89433,9.151633 65.884846,9.184181 67.355158,9.640226 69.154547,9.730388 70.428331,8.736633 71.412576,7.904292 71.535622,6.057789 70.30245,5.390254 69.137062,4.660262 67.592592,4.994686 66.465992,4.203468 65.706619,3.369423 66.599448,2.109131 67.619626,2.16804 68.757438,2.011058 69.917526,2.388767 70.852253,3.029297 70.96118,2.289211 70.994758,1.477595 70.031272,1.476936 69.398503,1.299278 68.7408,1.210035 68.083514,1.214844 Z m 22.837891,0.0918 c 0,0.348958 0,0.697917 0,1.046875 0.379558,0 0.759117,0 1.138675,0 0,-0.348959 0,-0.697919 0,-1.046878 -0.379558,1e-6 -0.759117,2e-6 -1.138675,3e-6 z M 37.054218,1.632815 c 0,0.57487 0,1.14974 0,1.72461 -0.890141,-0.460911 -0.977874,1.226957 -0.08956,0.84039 0.209458,0.59319 0.04113,1.317016 0.08689,1.961159 0.03983,0.871543 -0.128025,1.830592 0.318555,2.618498 0.605933,0.794843 1.91704,0.937254 2.724374,0.436826 C 40.553672,8.20257 39.57449,8.470474 38.987776,8.641231 38.033387,8.527186 38.001433,7.440683 38.063991,6.691421 c 0,-0.828133 0,-1.656266 0,-2.484399 0.694662,0 1.389323,0 2.083985,0 0.127125,-0.550494 -0.03471,-1.01834 -0.649972,-0.849609 -0.478004,0 -0.956009,0 -1.434014,0 0,-0.57487 0,-1.14974 0,-1.72461 -0.336592,5e-6 -0.673188,2e-6 -1.009778,1.2e-5 z m 35.792968,0 c 0,0.57487 0,1.14974 0,1.72461 -0.890141,-0.460911 -0.977872,1.226958 -0.08956,0.840389 0.209456,0.593191 0.04113,1.317016 0.08689,1.96116 0.03983,0.871543 -0.128025,1.830592 0.318555,2.618498 0.605932,0.794843 1.917039,0.937255 2.724373,0.436826 0.459195,-1.011729 -0.519987,-0.743824 -1.106701,-0.573067 -0.954391,-0.114044 -0.98634,-1.200549 -0.923786,-1.94981 0,-0.828133 0,-1.656266 0,-2.484399 0.694661,0 1.389323,0 2.083984,0 0.127125,-0.550494 -0.03471,-1.01834 -0.649972,-0.849609 -0.478004,0 -0.956009,0 -1.434013,0 0,-0.57487 0,-1.14974 0,-1.72461 -0.336591,5e-6 -0.673187,2e-6 -1.009776,1.2e-5 z M 18.808124,3.191409 C 18.094905,2.935351 17.239001,4.03514 16.807568,3.745844 16.924933,3.064297 15.42404,3.190079 15.784686,3.907384 c 0,1.81668 0,3.633361 0,5.450041 0.336589,0 0.673177,0 1.009766,0 0,-1.492839 0,-2.985677 0,-4.478516 0.735405,-0.637705 2.305453,-1.222485 2.849218,-0.08209 0.278696,0.901617 0.104456,1.862968 0.148831,2.794465 0,0.588713 0,1.177425 0,1.766138 0.336588,0 0.673177,0 1.009765,0 -0.04399,-1.593518 0.09877,-3.20141 -0.09401,-4.785076 -0.20719,-0.835885 -1.034297,-1.45801 -1.900131,-1.38094 z m 37.74414,0 c -1.521655,-0.106782 -2.870485,1.256511 -2.903391,2.752487 -0.187662,1.362639 0.449907,2.994629 1.887441,3.369754 1.127624,0.363449 2.364488,0.153591 3.426107,-0.321459 0,-0.367188 0,-0.734375 0,-1.101563 C 57.907373,8.60552 56.316536,9.000861 55.260559,8.083505 54.886278,7.776964 54.254723,6.45525 55.061618,6.462891 c 1.339981,0 2.679962,0 4.019943,0 C 59.160221,5.347343 58.934457,3.952653 57.79557,3.440653 57.409264,3.256935 56.977013,3.191152 56.552264,3.191409 Z m 39.789067,0 c -1.43435,-0.105366 -2.683091,1.182808 -2.741489,2.580836 -0.215182,1.416573 0.332234,3.201116 1.850159,3.631665 1.41416,0.476399 3.21103,-0.333712 3.50065,-1.869901 0.430759,-1.474988 0.0677,-3.439789 -1.4614,-4.123733 -0.36119,-0.15464 -0.75631,-0.220409 -1.14792,-0.218867 z m 16.300779,0 c -1.43435,-0.105366 -2.6831,1.182806 -2.74149,2.580836 -0.21518,1.416573 0.33223,3.201117 1.85016,3.631665 1.41416,0.476399 3.21103,-0.333712 3.50065,-1.869901 0.43076,-1.474988 0.0677,-3.439789 -1.4614,-4.123733 -0.36119,-0.15464 -0.75631,-0.220409 -1.14792,-0.218867 z m 7.2832,0 c -0.69559,-0.265373 -1.51917,0.857085 -1.9322,0.554435 0.11735,-0.681549 -1.38352,-0.555761 -1.02288,0.16154 0,1.81668 0,3.633361 0,5.450041 0.33659,0 0.67318,0 1.00977,0 0,-1.492839 0,-2.985677 0,-4.478516 0.69289,-0.640703 2.26346,-1.226266 2.74185,-0.07252 0.2374,0.922549 0.08,1.890099 0.12142,2.834903 0,0.572045 0,1.14409 0,1.716135 0.33659,0 0.67318,0 1.00977,0 -0.0184,-1.484296 0.0406,-2.969838 -0.0373,-4.453125 0.70054,-0.647981 2.28723,-1.268386 2.77851,-0.09505 0.23758,0.921564 0.0806,1.88819 0.12187,2.832036 0,0.572045 0,1.14409 0,1.716135 0.33659,0 0.67317,0 1.00976,0 -0.0368,-1.575996 0.0821,-3.161996 -0.0772,-4.731206 -0.19216,-1.116344 -1.45733,-1.724181 -2.48513,-1.365937 -0.77965,0.178711 -1.55659,1.282397 -2.09702,0.257269 -0.33141,-0.229515 -0.74,-0.337547 -1.14122,-0.326142 z M 32.478046,3.212899 C 31.83872,3.35545 30.468978,3.021271 30.522724,4.017333 c -0.153066,0.951473 1.001736,0.0084 1.530921,0.112201 0.701846,-0.07327 1.710297,-0.05734 1.99654,0.727327 0.174575,1.052501 -1.227212,0.402038 -1.837139,0.694747 -0.996071,0.09102 -2.155836,0.680376 -2.219204,1.801023 -0.147918,1.103215 0.758253,2.235243 1.909329,2.172302 0.780462,0.151097 1.757244,-0.583619 2.18709,-0.693631 -0.342005,0.814461 1.426891,0.762288 0.996486,-0.075 -0.03395,-1.410695 0.09441,-2.837608 -0.08715,-4.237248 C 34.664798,3.459355 33.464183,3.167251 32.478044,3.2129 Z m 11.404296,0.0059 c -1.504029,-0.1101 -2.896586,1.182736 -2.926571,2.687182 -0.176355,1.346973 0.370407,3.009517 1.799543,3.420825 1.006432,0.331935 2.126029,0.140974 3.048904,-0.346288 0,-0.370443 0,-0.740885 0,-1.111328 C 44.92866,8.497487 43.615859,9.003733 42.669548,8.234348 41.817468,7.402856 41.79671,5.973359 42.296661,4.953214 42.859892,3.853682 44.354119,3.932664 45.266704,4.515 45.797582,5.008321 45.862768,4.730534 45.804218,4.189913 46.002944,3.532111 45.205541,3.487446 44.749673,3.325198 44.466104,3.256018 44.1745,3.216812 43.882342,3.218799 Z m 63.195318,0 c -1.50374,-0.109716 -2.89438,1.183882 -2.92622,2.687075 -0.17586,1.346872 0.37216,3.007709 1.79939,3.421001 1.00705,0.332174 2.12691,0.140147 3.05065,-0.346357 0,-0.370443 0,-0.740885 0,-1.111328 -0.85579,0.602843 -2.08812,1.11006 -3.04591,0.433796 -0.97471,-0.825288 -0.99108,-2.4035 -0.39943,-3.455619 0.65696,-1.063404 2.14404,-0.856747 3.04678,-0.254061 0.55917,0.574537 0.36898,-0.179964 0.39856,-0.553388 0.0839,-0.665216 -0.97239,-0.606427 -1.42416,-0.786129 -0.1654,-0.02376 -0.33253,-0.03607 -0.49966,-0.03499 z M 8.7807805,3.357471 c 0.04122,1.588588 -0.09266,3.189826 0.08835,4.769773 0.2882975,1.277783 1.9188885,1.782465 2.9848915,1.142565 0.570565,-0.314218 0.986078,-0.69488 1.039564,0.10363 0.612721,0.09893 1.075923,-0.03721 0.904769,-0.715925 0,-1.766681 0,-3.533362 0,-5.300043 -0.336589,0 -0.673177,0 -1.009766,0 0,1.49349 0,2.986979 0,4.480469 C 12.049818,8.472357 10.472687,9.063989 9.935767,7.91136 9.659305,7.011411 9.836127,6.052926 9.790541,5.123616 c 0,-0.588714 0,-1.177427 0,-1.766141 -0.336588,0 -0.673175,0 -1.0097625,0 z m 51.8320305,0 c 0,2 0,4 0,6 0.336589,0 0.673177,0 1.009766,0 0,-1.419937 0,-2.839875 0,-4.259812 C 62.305908,4.248182 63.623484,4.470105 64.373218,4.285654 64.662142,3.202819 63.474485,3.180188 62.769621,3.532115 62.33026,3.657729 61.329158,4.669937 61.650752,3.548925 61.578242,3.173842 60.901187,3.422475 60.612811,3.357471 Z m 16.503907,0 c 0.04121,1.588688 -0.09266,3.190025 0.08837,4.770072 0.288873,1.277581 1.919942,1.782057 2.986002,1.1425 0.570429,-0.314472 0.984752,-0.694831 1.038441,0.103396 0.612721,0.09893 1.075923,-0.03721 0.904769,-0.715925 0,-1.766681 0,-3.533362 0,-5.300043 -0.336589,0 -0.673177,0 -1.009766,0 0,1.49349 0,2.986979 0,4.480469 -0.737676,0.635545 -2.315168,1.225256 -2.851584,0.0736 -0.275539,-0.900165 -0.09889,-1.858559 -0.144511,-2.787924 0,-0.588714 0,-1.177427 0,-1.766141 -0.337239,0 -0.674478,0 -1.011717,0 z m 13.86914,0 c 0,2 0,4 0,6 0.336587,0 0.673175,0 1.009762,0 0,-2 0,-4 0,-6 -0.336587,0 -0.673175,0 -1.009762,0 z m -34.488281,0.66597 c 0.834454,-0.299054 2.115691,1.166553 1.301584,1.666015 -1.045841,0 -2.091681,0 -3.137522,0 0.03552,-0.931763 0.895214,-1.740889 1.835938,-1.666015 z m 39.843754,0.03711 c 1.27816,-0.08268 1.86571,1.379182 1.72663,2.457497 0.1044,1.157321 -0.86159,2.466524 -2.11858,2.102129 -1.08783,-0.246126 -1.39757,-1.435427 -1.33929,-2.408618 -0.0443,-0.944333 0.47196,-2.10084 1.54394,-2.143186 z m 16.300779,0 c 1.27817,-0.08269 1.86571,1.379181 1.72663,2.457497 0.10438,1.157271 -0.86148,2.466417 -2.11844,2.102171 -1.08845,-0.245686 -1.39611,-1.435626 -1.33748,-2.408502 -0.0438,-0.943654 0.47077,-2.100327 1.54223,-2.143379 z m -26.097658,0.05469 c 0.586064,0.02158 1.671157,0.05379 1.433594,0.922208 0,0.947805 0,1.895609 0,2.843414 C 87.206225,8.596336 85.56361,8.983149 85.022883,7.812673 84.602816,6.825616 84.604605,5.534304 85.26489,4.653333 85.583832,4.295926 86.065339,4.090903 86.544452,4.115238 Z M 34.085468,6.210945 c 0,0.55664 0,1.113281 0,1.669921 -0.771631,0.679272 -2.403138,1.171243 -2.999156,0.05689 -0.341792,-1.047058 0.799111,-1.661463 1.692306,-1.626694 0.434258,-0.04959 0.871322,-0.06576 1.30685,-0.100121 z m 66.841792,1.615234 c 0,0.510417 0,1.020833 0,1.53125 0.42774,0 0.85547,0 1.28321,0 0,-0.510417 0,-1.020833 0,-1.53125 -0.42774,0 -0.85547,0 -1.28321,0 z" />
</g></svg>