<svg version="1.1" x="0px" y="0px" viewBox="0 0 439.99996 340.00014" xml:space="preserve" id="svg8" sodipodi:docname="printable-baseball-field-diagram-colored-cc9966-448844.svg" width="439.99997" height="340" inkscape:version="1.3-dev (fe4297a9c, 2023-01-13)" xmlns:inkscape="http://www.inkscape.org/namespaces/inkscape" xmlns:sodipodi="http://sodipodi.sourceforge.net/DTD/sodipodi-0.dtd" xmlns:xlink="http://www.w3.org/1999/xlink" xmlns="http://www.w3.org/2000/svg" xmlns:svg="http://www.w3.org/2000/svg" xmlns:rdf="http://www.w3.org/1999/02/22-rdf-syntax-ns#" xmlns:cc="http://creativecommons.org/ns#" xmlns:dc="http://purl.org/dc/elements/1.1/"><metadata id="metadata14"><rdf:rdf><cc:work rdf:about=""><dc:format>image/svg+xml</dc:format><dc:type rdf:resource="http://purl.org/dc/dcmitype/StillImage"></dc:type></cc:work></rdf:rdf></metadata><defs id="defs12"><linearGradient inkscape:collect="always" id="linearGradient6"><stop style="stop-color:#000000;stop-opacity:1;" offset="0" id="stop5"></stop><stop style="stop-color:#000000;stop-opacity:0;" offset="1" id="stop6"></stop></linearGradient><pattern inkscape:collect="always" xlink:href="#pattern12" preserveAspectRatio="xMidYMid" id="pattern1" patternTransform="matrix(0.08128263,0,0,0.06918327,532.30475,-3.4699871)"></pattern><pattern inkscape:collect="always" xlink:href="#pattern5" preserveAspectRatio="xMidYMid" id="pattern12" patternTransform="matrix(0.07719683,0,0,0.06570566,68.334246,-0.67980214)"></pattern><pattern inkscape:collect="always" xlink:href="#pattern2" preserveAspectRatio="xMidYMid" id="pattern6" patternTransform="matrix(0.066,0,0,0.066,0.125,0)"></pattern><pattern inkscape:collect="always" xlink:href="#pattern2" preserveAspectRatio="xMidYMid" id="pattern5" patternTransform="matrix(0.066,0,0,0.066,0.125,0)"></pattern><pattern inkscape:collect="always" xlink:href="#WireFence" preserveAspectRatio="xMidYMid" id="pattern4" patternTransform="matrix(0.28356305,0,0,0.30010605,-22.608525,-0.05821753)" x="0" y="0"></pattern><pattern inkscape:collect="always" xlink:href="#WireFence" preserveAspectRatio="xMidYMid" id="pattern2" patternTransform="scale(0.066)" x="0" y="0"></pattern><pattern patternUnits="userSpaceOnUse" width="52" height="61.14" id="WireFence" patternTransform="scale(0.3,0.3)" preserveAspectRatio="xMidYMid" style="fill:#fefefe" inkscape:collect="always" inkscape:isstock="true" inkscape:label="WireFence">
      <path id="rect9" style="stroke:none" d="m 31.437499,0 7.257813,7.2578126 c -0.879538,1.3312883 -0.879117,3.0161644 10e-7,4.3476564 L 26.072266,24.228516 14,36.300782 0,22.302735 v 2.828124 l 12.640625,12.640625 c -0.89873,1.34129 -0.898729,3.115742 0,4.457031 L 0,54.86914 v 2.828126 l 14,-14 17.443359,17.443359 2.828125,10e-7 -18.912109,-18.91211 c 0.898055,-1.340861 0.898042,-3.116186 0,-4.457031 L 27.488281,25.642578 40,13.128906 l 12.000001,12 L 52,22.300781 41.302734,11.605469 c 0.879644,-1.331587 0.879713,-3.0161029 0,-4.3476564 L 48.560547,0 H 45.732422 L 40,5.732422 34.267578,0 Z M 52,54.869141 l -6.271484,6.271484 2.828124,0 L 52,57.697265 Z" data-index="0"></path>
    </pattern><filter id="b" x="-0.027825156" y="-0.027227204" width="1.0556504" height="1.0544544"><feGaussianBlur stdDeviation="4.46364" id="feGaussianBlur1"></feGaussianBlur></filter><radialGradient id="a" cx="1049.4" cy="260.32999" r="151.55" gradientTransform="matrix(-0.48145,-0.48145,0.6544,-0.6544,716.8,973.82)" gradientUnits="userSpaceOnUse"><stop stop-color="#e8943a" offset="0" id="stop1"></stop><stop stop-color="#af412a" offset="1" id="stop2"></stop></radialGradient><linearGradient inkscape:collect="always" xlink:href="#linearGradient6" id="linearGradient7" x1="184.70442" y1="344.57892" x2="256.86505" y2="344.57892" gradientUnits="userSpaceOnUse" gradientTransform="matrix(0.76349615,0,0,1,49.084741,-13.434418)"></linearGradient></defs><sodipodi:namedview pagecolor="#ffffff" bordercolor="#666666" borderopacity="1" objecttolerance="10" gridtolerance="10" guidetolerance="10" inkscape:pageopacity="0" inkscape:pageshadow="2" inkscape:window-width="1366" inkscape:window-height="705" id="namedview10" showgrid="false" inkscape:showpageshadow="false" fit-margin-top="20" lock-margins="false" fit-margin-bottom="20" fit-margin-left="1" fit-margin-right="1" inkscape:zoom="1.3570911" inkscape:cx="163.58519" inkscape:cy="181.63851" inkscape:window-x="1358" inkscape:window-y="80" inkscape:window-maximized="1" inkscape:current-layer="svg8" inkscape:document-rotation="0" inkscape:pagecheckerboard="0" inkscape:deskcolor="#d1d1d1"><inkscape:grid type="xygrid" id="grid1214" empspacing="10" originx="1860.3352" originy="676.7561" spacingx="2.0000004" spacingy="2.0000004" units="px" visible="false"></inkscape:grid></sodipodi:namedview>

<g id="Layer_1" transform="translate(15.228729,1228.578)">
</g>
<g id="g1"><path id="path71" style="fill: rgb(34, 170, 34); fill-opacity: 1; fill-rule: evenodd; stroke-linecap: round; stroke-miterlimit: 10; stroke-opacity: 1; paint-order: markers; stop-color: rgb(0, 0, 0); opacity: 1;" d="M 219.99897,13.004012 C 78.116575,12.44529 23.897834,141.75025 24.003854,143.46448 L 191.10018,312.91757 c 20.15674,18.52274 31.94931,18.84716 52.62882,0.53469 L 415.99597,143.46259 c 0.07,-1.01829 -60.93246,-131.295279 -195.997,-130.458578 z" sodipodi:nodetypes="cccccc" data-index="2"></path><path id="path92" style="fill: rgb(204, 153, 102); fill-opacity: 1; fill-rule: evenodd; stroke-linecap: round; stroke-miterlimit: 10; paint-order: markers; stop-color: rgb(0, 0, 0); opacity: 1;" d="m 107.88475,179.94978 c -0.0658,-1.08045 21.54041,-84.203085 109.45536,-83.850925 83.69039,-0.527362 109.49877,83.209105 109.45536,83.850905 L 217.34011,291.29647 Z" sodipodi:nodetypes="ccccc" data-index="3"></path><path id="rect92" style="fill:#ffffff;fill-rule:evenodd;stroke-width:0.999992;stroke-linecap:round;stroke-miterlimit:10;paint-order:markers fill stroke;stop-color:#000000" transform="matrix(0.70707733,-0.70713623,0.70707733,0.70713623,0,0)" d="m 66.670212,233.83257 h 7.253874 v 7.25387 h -7.253874 z" data-index="4"></path><path id="rect93" style="fill:#ffffff;fill-rule:evenodd;stroke-width:0.999992;stroke-linecap:round;stroke-miterlimit:10;paint-order:markers fill stroke;stop-color:#000000" transform="matrix(0.70707733,-0.70713623,0.70707733,0.70713623,0,0)" d="m 68.249695,344.42285 h 7.253874 v 7.25388 h -7.253874 z" data-index="5"></path><path id="rect94" style="fill:#ffffff;fill-rule:evenodd;stroke-width:0.999992;stroke-linecap:round;stroke-miterlimit:10;paint-order:markers fill stroke;stop-color:#000000" transform="matrix(0.70707733,-0.70713623,0.70707733,0.70713623,0,0)" d="m -44.829552,231.94653 h 7.253874 v 7.25388 h -7.253874 z" data-index="6"></path><path id="path94" style="fill: rgb(34, 170, 34); fill-opacity: 1; fill-rule: evenodd; stroke-linecap: round; stroke-miterlimit: 10; paint-order: markers; stop-color: rgb(0, 0, 0); opacity: 1;" d="m 223.93233,123.18661 a 7.772905,7.7735522 0 0 1 -6.17884,3.29971 7.772905,7.7735522 0 0 1 -6.16366,-3.27441 l -65.21955,65.22496 a 7.772905,7.7735522 0 0 1 2.56061,5.74414 7.772905,7.7735522 0 0 1 -2.79845,5.84535 l 65.64714,65.65259 a 7.772905,7.7735522 0 0 1 5.65004,-2.50768 7.772905,7.7735522 0 0 1 5.99667,2.84678 l 66.00389,-66.00942 a 7.772905,7.7735522 0 0 1 -2.53022,-5.6657 7.772905,7.7735522 0 0 1 2.52265,-5.66061 z" data-index="7"></path><path id="rect95" style="fill:none;fill-rule:evenodd;stroke:#ffffff;stroke-width:0.75;stroke-linecap:square;stroke-miterlimit:10;paint-order:markers fill stroke;stop-color:#000000" transform="matrix(0.70707733,0.70713623,-0.70707733,0.70713623,0,0)" d="m 365.31735,-77.33992 h 6.76006 v 18.082565 h -6.76006 z" data-index="8"></path><path id="rect96" style="fill:none;fill-rule:evenodd;stroke:#ffffff;stroke-width:0.75;stroke-linecap:square;stroke-miterlimit:10;paint-order:markers fill stroke;stop-color:#000000" transform="matrix(-0.70707733,0.70713623,0.70707733,0.70713623,0,0)" d="m 56.453781,227.43768 h 6.760059 v 18.08257 h -6.760059 z" data-index="9"></path><path id="ellipse96" style="fill: rgb(204, 153, 102); fill-rule: evenodd; stroke-linecap: round; stroke-miterlimit: 10; paint-order: markers; stop-color: rgb(0, 0, 0); opacity: 1;" d="m 237.22457,280.79053 a 19.730906,19.73255 0 0 1 -19.7309,19.73255 19.730906,19.73255 0 0 1 -19.73091,-19.73255 19.730906,19.73255 0 0 1 19.73091,-19.73255 19.730906,19.73255 0 0 1 19.7309,19.73255 z" data-index="10"></path><path id="path96" style="fill:#ffffff;fill-rule:evenodd;stroke-width:1;stroke-linecap:round;stroke-miterlimit:10;paint-order:markers fill stroke;stop-color:#000000" d="m 212.74245,270.62975 v 4.8254 l 4.82969,4.83009 h 0.0141 l 4.81084,-4.81123 v -4.84426 z" data-index="11"></path><path id="rect97" style="fill: none; fill-rule: evenodd; stroke-linecap: square; stroke-miterlimit: 10; paint-order: markers; stop-color: rgb(0, 0, 0); opacity: 1;" d="m 214.25471,283.70337 h 6.75978 v 9.59359 h -6.75978 z" data-index="12"></path><path id="rect99" style="fill:none;fill-rule:evenodd;stroke:#ffffff;stroke-width:0.75;stroke-linecap:square;stroke-miterlimit:10;paint-order:markers fill stroke;stop-color:#000000" d="m 203.62508,267.11154 h 6.75977 v 18.08332 h -6.75977 z" data-index="13"></path><path id="ellipse100" style="fill:#cc9966;fill-rule:evenodd;stroke-linecap:round;stroke-miterlimit:10;paint-order:markers fill stroke;stop-color:#000000" d="m 230.55923,191.55502 a 13.013762,13.014845 0 0 1 -13.01376,13.01485 13.013762,13.014845 0 0 1 -13.01376,-13.01485 13.013762,13.014845 0 0 1 13.01376,-13.01484 13.013762,13.014845 0 0 1 13.01376,13.01484 z" data-index="14"></path><path id="rect100" style="fill:#ffffff;fill-rule:evenodd;stroke-linecap:round;stroke-miterlimit:10;paint-order:markers fill stroke;stop-color:#000000" transform="rotate(-90)" d="m -193.28378,212.8999 h 3.37972 v 9.35298 h -3.37972 z" data-index="15"></path><path id="circle183" style="fill:#cc9966;fill-rule:evenodd;stroke:#000000;stroke-width:0.7;stroke-linecap:square;stroke-miterlimit:10;paint-order:markers fill stroke;stop-color:#000000" d="m 176.19493,279.00565 a 5.4664497,5.4663391 0 0 1 -5.46644,5.46633 5.4664497,5.4663391 0 0 1 -5.46645,-5.46633 5.4664497,5.4663391 0 0 1 5.46645,-5.46634 5.4664497,5.4663391 0 0 1 5.46644,5.46634 z" data-index="16"></path><g id="g80" transform="matrix(1.2091929,0,0,1.2093428,455.41219,-135.33545)" style="stroke-width:0.826947"><path style="color:#000000;fill:#d3bc5f;fill-rule:evenodd;stroke-width:0.826947;stroke-linecap:square;stroke-miterlimit:10;-inkscape-stroke:none;paint-order:markers fill stroke" d="M -331.29297,208.92381 -196.26758,343.9492 Z" id="path79" data-index="17"></path><path id="path80" style="color:#000000;fill:#ffffff;fill-rule:evenodd;stroke-width:0.826947;stroke-linecap:square;stroke-miterlimit:10;-inkscape-stroke:none;paint-order:markers fill stroke" d="m -52.573957,198.64616 -144.087523,144.28248 -143.17393,-142.69341 -0.7076,0.70757 143.87179,143.39124 0.004,-0.004 0.01,0.01 144.791225,-144.98615 z" sodipodi:nodetypes="ccccccccc" data-index="18"></path></g><path id="circle188" style="fill:#cc9966;fill-rule:evenodd;stroke:#000000;stroke-width:0.7;stroke-linecap:square;stroke-miterlimit:10;paint-order:markers fill stroke;stop-color:#000000" d="m 271.35238,279.00565 a 5.4664497,5.4663391 0 0 1 -5.46645,5.46633 5.4664497,5.4663391 0 0 1 -5.46645,-5.46633 5.4664497,5.4663391 0 0 1 5.46645,-5.46634 5.4664497,5.4663391 0 0 1 5.46645,5.46634 z" data-index="19"></path><path id="rect1" style="fill:none;fill-rule:evenodd;stroke:#000000;stroke-width:0.749998;stroke-linecap:square;stroke-miterlimit:10;paint-order:markers fill stroke;stop-color:#000000" transform="matrix(0.70814892,0.7060631,-0.7047007,0.7095047,0,0)" d="m 405.07428,-66.055779 h 13.8686 v 46.52858 h -13.8686 z" data-index="20"></path><path id="rect2" style="fill:none;fill-rule:evenodd;stroke:#000000;stroke-width:0.749998;stroke-linecap:square;stroke-miterlimit:10;paint-order:markers fill stroke;stop-color:#000000" transform="matrix(-0.70607744,0.70813463,-0.70951896,-0.70468634,0,0)" d="m 95.652138,-300.88782 h 13.868602 v 46.52859 H 95.652138 Z" data-index="21"></path><path id="rect3" style="fill:none;fill-rule:evenodd;stroke:#ffffff;stroke-width:0.75;stroke-linecap:square;stroke-miterlimit:10;paint-order:markers fill stroke;stop-color:#000000" d="m 224.91037,267.11154 h 6.75978 v 18.08332 h -6.75978 z" data-index="22"></path><path id="path1" style="fill: none; fill-opacity: 1; fill-rule: evenodd; stroke-linecap: round; stroke-miterlimit: 10; stroke-opacity: 1; paint-order: markers; stop-color: rgb(0, 0, 0); opacity: 1;" d="M 219.99897,13.004012 C 78.116575,12.44529 23.897834,141.75025 24.003854,143.46448 L 191.10018,312.91757 c 20.15674,18.52274 31.94931,18.84716 52.62882,0.53469 L 415.99597,143.46259 c 0.07,-1.01829 -60.93246,-131.295279 -195.997,-130.458578 z" sodipodi:nodetypes="cccccc" data-index="23"></path></g><g transform="translate(10, 328)">  
</g></svg>