<?xml version="1.0" standalone="no"?>
<!DOCTYPE svg PUBLIC "-//W3C//DTD SVG 20010904//EN"
 "http://www.w3.org/TR/2001/REC-SVG-20010904/DTD/svg10.dtd">
<svg version="1.0" xmlns="http://www.w3.org/2000/svg"
 width="512.000000pt" height="512.000000pt" viewBox="0 0 512.000000 512.000000"
 preserveAspectRatio="xMidYMid meet">

<g transform="translate(0.000000,512.000000) scale(0.100000,-0.100000)"
fill="#000000" stroke="none">
<path d="M1193 5000 c-338 -65 -351 -68 -445 -117 -80 -42 -184 -146 -224
-225 -14 -28 -137 -355 -272 -727 -242 -666 -245 -677 -246 -756 -1 -68 3 -88
26 -130 14 -27 41 -64 60 -81 18 -17 166 -111 328 -208 323 -192 359 -207 455
-186 79 18 106 34 215 128 58 50 106 85 108 78 1 -6 -31 -225 -73 -486 -82
-518 -82 -519 -24 -539 35 -12 73 -1 88 27 5 10 53 290 105 620 102 644 102
637 49 661 -38 17 -47 14 -108 -36 -45 -36 -61 -44 -74 -36 -9 5 -213 128
-454 272 -336 202 -438 267 -434 280 25 92 376 1037 398 1073 64 100 167 168
288 189 47 9 64 8 78 -3 11 -7 281 -247 601 -532 l582 -519 0 -1758 0 -1759
-22 0 c-68 0 -291 51 -426 97 -198 67 -410 192 -534 313 -84 83 -135 183 -151
296 -10 68 -8 97 26 317 45 292 45 299 11 326 -34 27 -57 26 -89 -1 -24 -22
-29 -39 -65 -273 -44 -279 -47 -322 -24 -433 48 -238 233 -433 569 -600 196
-98 441 -166 705 -196 176 -21 504 -21 680 0 457 52 841 215 1085 459 74 73
99 106 132 175 45 91 73 205 73 292 0 29 -61 438 -135 908 -75 470 -134 861
-133 867 2 7 52 -30 113 -82 123 -106 172 -130 270 -128 33 0 77 8 97 16 71
30 603 356 634 389 59 62 79 114 78 203 -1 79 -4 90 -246 756 -135 372 -258
699 -272 727 -61 121 -206 236 -346 276 -92 26 -638 126 -689 126 -66 0 -156
-25 -223 -63 -34 -19 -205 -164 -413 -349 -195 -175 -360 -318 -366 -318 -5 0
-94 75 -197 168 -578 518 -574 515 -697 546 -91 24 -146 19 -472 -44z m488
-117 c31 -14 176 -136 438 -369 215 -192 401 -353 415 -358 38 -14 66 0 147
71 623 557 716 637 757 655 74 33 140 33 311 -1 84 -17 155 -32 156 -33 2 -2
-58 -57 -132 -122 -74 -66 -139 -130 -144 -143 -17 -46 18 -93 70 -93 32 0 55
17 215 160 113 101 187 160 200 160 35 0 133 -28 177 -51 55 -27 121 -90 158
-147 22 -36 373 -981 398 -1073 4 -13 -98 -78 -434 -280 -241 -144 -445 -267
-454 -272 -13 -8 -29 0 -74 36 -61 50 -70 53 -108 36 -54 -25 -57 7 104 -1007
82 -521 153 -976 156 -1012 3 -36 0 -92 -6 -125 -14 -76 -67 -187 -116 -243
-44 -51 -176 -154 -262 -206 -187 -112 -466 -205 -696 -232 l-57 -7 0 1760 0
1760 296 263 c163 146 310 277 326 292 24 22 29 34 26 64 -4 46 -43 80 -82 70
-22 -5 -668 -570 -703 -614 -10 -13 -13 -391 -13 -1814 l0 -1798 -190 0 -190
0 0 1801 0 1801 -42 39 c-24 22 -284 254 -579 517 -295 262 -536 478 -534 480
1 2 67 16 146 32 165 34 249 34 320 3z m-1028 -1768 c218 -131 397 -241 397
-246 0 -4 -35 -37 -77 -73 -89 -77 -132 -93 -190 -73 -56 19 -563 326 -595
360 -44 47 -46 87 -8 200 32 94 34 97 54 84 12 -8 200 -121 419 -252z m4298
138 c26 -83 21 -128 -19 -170 -29 -31 -530 -336 -591 -360 -58 -23 -103 -5
-194 73 -43 37 -76 71 -75 76 2 4 190 120 418 257 l415 249 11 -28 c7 -15 22
-59 35 -97z"/>
<path d="M2501 3216 c-41 -44 -27 -113 29 -136 86 -35 156 83 82 140 -34 28
-83 26 -111 -4z"/>
<path d="M2505 2548 c-48 -42 -28 -129 33 -143 41 -9 81 10 96 46 17 40 10 75
-22 99 -33 26 -75 25 -107 -2z"/>
<path d="M2505 1878 c-48 -42 -28 -129 33 -143 41 -9 81 10 96 46 17 40 10 75
-22 99 -33 26 -75 25 -107 -2z"/>
<path d="M2505 1208 c-47 -41 -28 -129 30 -144 59 -15 109 27 107 89 -1 40
-41 77 -82 77 -16 0 -41 -10 -55 -22z"/>
<path d="M2505 538 c-47 -41 -28 -129 30 -144 59 -15 109 27 107 89 -1 40 -41
77 -82 77 -16 0 -41 -10 -55 -22z"/>
</g>
</svg>
